General
      Complete name : Shallow.Grave.1994.BRRip.H264.AAC.5.1ch.Gopo.mp4
      Format : MPEG-4
      Format profile : Base Media
      Codec ID : isom
      File size : 1.47 GiB
      Duration : 1h 32mn
      Overall bit rate : 2 272 Kbps
      Encoded date : UTC 2009-12-29 09:27:34
      Tagged date : UTC 2009-12-29 09:27:34
      Writing application : Yamb 2.1.0.0 [http://yamb.unite-video.com]
   Video #1
      ID : 1
      Format : AVC
      Format/Info : Advanced Video Codec
      Format profile : High@L4.1
      Format settings, CABAC : Yes
      Format settings, ReFrames : 5 frames
      Codec ID : avc1
      Codec ID/Info : Advanced Video Coding
      Duration : 1h 32mn
      Bit rate mode : Variable
      Bit rate : 1 933 Kbps
      Maximum bit rate : 10.1 Mbps
      Width : 1 280 pixels
      Height : 720 pixels
      Display aspect ratio : 16:9
      Frame rate mode : Constant
      Frame rate : 23.976 fps
      Resolution : 24 bits
      Colorimetry : 4:2:0
      Scan type : Progressive
      Bits/(Pixel*Frame) : 0.087
      Stream size : 1.25 GiB (85%)
      Writing library : x264 core 79 r1360 528c100
      Encoding settings : cabac=1 / ref=5 / deblock=1:0:0 / analyse=0x3:0x113 / me=umh / subme=8 / psy=1 / psy_rd=1.0:0.0 / mixed_ref=1 / me_range=16 / chroma_me=1 / trellis=2 / 8x8dct=1 / cqm=0 / deadzone=21,11 / chroma_qp_offset=-2 / threads=3 / nr=0 / decimate=1 / mbaff=0 / constrained_intra=0 / bframes=3 / b_pyramid=0 / b_adapt=2 / b_bias=0 / direct=3 / wpredb=1 / wpredp=2 / keyint=250 / keyint_min=25 / scenecut=40 / rc_lookahead=30 / rc=2pass / mbtree=1 / bitrate=1933 / ratetol=1.0 / qcomp=0.50 / qpmin=10 / qpmax=51 / qpstep=4 / cplxblur=20.0 / qblur=0.5 / vbv_maxrate=24000 / vbv_bufsize=24000 / ip_ratio=1.10 / aq=1:1.00
      Encoded date : UTC 2009-12-28 10:42:46
      Tagged date : UTC 2009-12-29 09:30:29
   Audio #2
      ID : 2
      Format : AAC
      Format/Info : Advanced Audio Codec
      Format version : Version 4
      Format profile : LC
      Format settings, SBR : No
      Codec ID : 40
      Duration : 1h 32mn
      Bit rate mode : Variable
      Bit rate : 336 Kbps
      Maximum bit rate : 435 Kbps
      Channel(s) : 2 channels
      Channel positions : L R
      Sampling rate : 48.0 KHz
      Resolution : 16 bits
      Stream size : 222 MiB (15%)
      Encoded date : UTC 2009-12-29 09:30:00
      Tagged date : UTC 2009-12-29 09:30:29
	Sample : YES
	Subtitle : English,Romanian

PLOT

To avoid spoiling the movie this plot summary is very brief. It starts when three people living together in a four bedroom flat are looking for a house mate. The interviews they conduct are very unorthodox and very funny. Eventually the three agree on one prospective tenant. He moves in, locks his door, and is not seen again. After a couple of days the three become curious and break in to his room. What follows is an amazing piece of cinema and to say more would ruin it. 
Director: Danny Boyle
CASTING 
     
      Kerry Fox	... 	Juliet Miller
	Christopher Eccleston	... 	David Stephens
	Ewan McGregor	... 	Alex Law
	Ken Stott	... 	Detective Inspector McCall
	Keith Allen	... 	Hugo
	Colin McCredie	... 	Cameron
	Victoria Nairn	... 	Visitor
	Gary Lewis	... 	Visitor
	Jean Marie Coffey	... 	Goth
	Peter Mullan	... 	Andy
	Leonard O'Malley	... 	Tim
	David Scoular	... 	Cash Machine Victim
	Grant Glendinning	... 	Bath Victim
	Victor Eadie	... 	Freezer victim
	Robert David MacDonald	... 	Lumsden

SOURCE: shallow.grave.1994.720p.bluray.x264-hv.mkv

Notes: For best performance I suggest you to use KMPlayer(find it with google) for playback
I haven't tested the movies on a PS3 or Xbox or other devices than PC because I don't own one of them but feel free to test them if you have the oportunity.
